<svg xmlns="http://www.w3.org/2000/svg" viewBox="0 0 67.738 67.738">
	<g>
		<g>
			<g>
				<path d="M45.786,7.413c1.108-1.833,2.292-2.695,3.122-2.74c1.026,0,2.259,0.673,3.415,1.792c1.649-0.484,3.251-1.021,4.754-1.666
				c-2.471-3.191-5.575-4.967-8.596-4.787c-3.444,0.205-6.503,3.57-8.294,8.376c1.83-0.058,3.603-0.237,5.345-0.479
				C45.619,7.751,45.692,7.564,45.786,7.413z"/>
			</g>
			<g>
				<path d="M56.173,13.378c1.508-0.605,2.951-1.271,4.295-2.015c-0.629-1.925-1.443-3.633-2.386-5.121
				c-1.435,0.633-2.945,1.189-4.508,1.683C54.585,9.302,55.504,11.139,56.173,13.378z"/>
			</g>
			<g>
				<path d="M44.647,9.831c-1.649,0.194-3.333,0.31-5.055,0.345c-0.57,2-0.936,4.184-1.024,6.461c1.597,0,3.159-0.096,4.699-0.238
				C43.406,13.983,43.913,11.743,44.647,9.831z"/>
			</g>
			<g>
				<path d="M57.198,19.947c1.607-0.698,3.134-1.476,4.541-2.34c-0.152-1.596-0.41-3.114-0.771-4.537
				c-1.369,0.744-2.831,1.41-4.354,2.01C56.935,16.566,57.147,18.186,57.198,19.947z"/>
			</g>
			<g>
				<path d="M43.257,18.167c-1.537,0.138-3.098,0.231-4.688,0.231c0.034,1.725,0.222,3.477,0.587,5.23
				c1.614-0.019,3.193-0.138,4.747-0.3C43.493,21.599,43.281,19.865,43.257,18.167z"/>
			</g>
			<g>
				<path d="M46.376,30.026c-0.361-0.897-0.753-1.821-1.2-2.815c-0.319-0.71-0.563-1.436-0.803-2.165
				c-1.565,0.172-3.155,0.299-4.781,0.332c0.354,1.264,0.771,2.522,1.325,3.75c0.229,0.505,0.422,0.96,0.623,1.425
				C43.192,30.46,44.802,30.271,46.376,30.026z"/>
			</g>
			<g>
				<path d="M57.179,21.864c-0.048,1.214-0.144,2.467-0.352,3.784c-0.087,0.546-0.193,1.046-0.289,1.58
				c1.82-0.75,3.537-1.596,5.109-2.551c0.196-1.766,0.262-3.466,0.207-5.1C60.393,20.424,58.829,21.185,57.179,21.864z"/>
			</g>
			<g>
				<path d="M18.841,14.016c0.829,0.044,2.017,0.907,3.123,2.74c0.094,0.151,0.167,0.341,0.256,0.503
				c1.734,0.241,3.503,0.417,5.327,0.476c-1.79-4.806-4.85-8.171-8.294-8.376c-3.02-0.179-6.127,1.595-8.594,4.787
				c1.504,0.645,3.111,1.184,4.765,1.667C16.581,14.691,17.812,14.016,18.841,14.016z"/>
			</g>
			<g>
				<path d="M23.102,19.176c0.733,1.911,1.24,4.15,1.378,6.568c1.535,0.143,3.093,0.236,4.686,0.238
				c-0.094-2.28-0.455-4.461-1.025-6.461C26.426,19.486,24.745,19.37,23.102,19.176z"/>
			</g>
			<g>
				<path d="M14.172,17.27c-1.567-0.495-3.083-1.049-4.52-1.687c-0.941,1.489-1.756,3.198-2.385,5.12
				c1.348,0.748,2.794,1.416,4.306,2.021C12.243,20.486,13.16,18.65,14.172,17.27z"/>
			</g>
			<g>
				<path d="M11.136,24.427c-1.525-0.602-2.993-1.268-4.366-2.014c-0.362,1.423-0.62,2.941-0.771,4.537
				c1.411,0.867,2.939,1.647,4.555,2.345C10.601,27.536,10.811,25.914,11.136,24.427z"/>
			</g>
			<g>
				<path d="M23.842,32.674c1.551,0.162,3.123,0.278,4.734,0.297c0.367-1.754,0.555-3.506,0.586-5.23
				c-1.587,0-3.141-0.093-4.674-0.231C24.469,29.21,24.255,30.944,23.842,32.674z"/>
			</g>
			<g>
				<path d="M10.92,34.992c-0.208-1.315-0.304-2.565-0.35-3.78c-1.654-0.68-3.223-1.443-4.688-2.291
				c-0.053,1.631,0.012,3.331,0.208,5.099c1.575,0.958,3.299,1.806,5.123,2.555C11.116,36.043,11.007,35.539,10.92,34.992z"/>
			</g>
			<g>
				<path d="M22.572,36.555c-0.446,0.992-0.838,1.918-1.199,2.816c1.571,0.242,3.174,0.434,4.821,0.529
				c0.201-0.465,0.395-0.922,0.624-1.426c0.554-1.229,0.972-2.488,1.324-3.751c-1.621-0.033-3.207-0.16-4.77-0.332
				C23.137,35.119,22.891,35.847,22.572,36.555z"/>
			</g>
			<g>
				<path d="M48.908,6.425c-0.05,0.038-0.773,0.486-1.626,1.895c-2.476,4.094-3.447,11.65-0.509,18.172
				c0.555,1.232,1.062,2.397,1.499,3.532c0,0,6.223-1.259,6.364-2.004c0.161-0.874,0.319-1.747,0.46-2.642
				c1.289-8.132-0.919-14.148-3.412-17.068C50.578,7.013,49.471,6.425,48.908,6.425z"/>
			</g>
			<g>
				<path d="M18.701,15.761c-0.422,0.007-1.532,0.598-2.637,1.892c-2.494,2.92-4.699,8.936-3.413,17.068
				c0.143,0.899,0.299,1.78,0.463,2.643c0.137,0.728,6.359,2.01,6.359,2.01c0.439-1.134,0.947-2.302,1.502-3.538
				c2.938-6.521,1.966-14.077-0.508-18.171C19.615,16.254,18.888,15.806,18.701,15.761z"/>
			</g>
			<g>
				<path d="M24.952,51.594L8.611,50.359c0.067,1.32,0.082,2.671-0.016,4.097c-0.465,6.841,2.289,13.296,9.364,13.282
				c5.964-0.009,10.763-6.095,7.76-13.871C25.405,53.049,25.16,52.308,24.952,51.594z"/>
			</g>
			<g>
				<path d="M59.125,41.016L42.784,42.25c-0.21,0.714-0.454,1.46-0.77,2.274c-3.004,7.776,1.796,13.862,7.761,13.871
				c7.073,0.014,9.829-6.441,9.363-13.282C59.042,43.688,59.056,42.337,59.125,41.016z"/>
			</g>
		</g>
	</g>
</svg>
