<svg xmlns="http://www.w3.org/2000/svg" viewBox="0 0 512 512">
	<g>
		<g>
			<path d="M227.29,293.348c-1.81-4.506-6.594-7.058-11.345-6.054L90.089,313.888c-2.628,0.556-4.922,2.145-6.365,4.41
			c-1.444,2.265-1.916,5.016-1.31,7.633c5.208,22.462,10.723,41.65,20.713,62.278c8.682,17.926,22.551,31.312,39.054,37.693
			c7.493,2.898,15.342,4.342,23.385,4.342c11.057,0,22.479-2.728,33.857-8.155c21.048-10.041,34.219-29.468,38.089-56.182
			C240.748,343.569,237.118,317.801,227.29,293.348z M190.813,404.038c-28.52,13.604-55.875,3.972-69.686-24.547
			c-7.713-15.925-12.578-31.155-16.845-48.162l107.342-22.682C224.328,346.442,221.402,389.446,190.813,404.038z"/>
		</g>
	</g>
	<g>
		<g>
			<path d="M224.714,77.619C211.879,38.706,176.292-2.171,128.55,0.09C98.376,1.506,73.096,17.297,55.441,45.756
			c-29.752,47.954-31.642,122.096-5.026,185.65c0.138,0.398,0.303,0.788,0.494,1.172c0.341,0.803,0.667,1.612,1.017,2.411
			c6.1,13.909,12.796,38.341,15.316,47.539c1.211,4.419,5.222,7.358,9.637,7.358c0.685,0,1.38-0.071,2.075-0.218l141.642-29.93
			c4.271-0.903,7.462-4.471,7.886-8.815l0.558-5.751c1.669-17.242,3.955-40.855,5.956-52.305
			C240.83,159.483,236.795,114.245,224.714,77.619z M72.434,56.299c9.782-15.767,27.62-34.85,57.054-36.232
			c0.887-0.042,1.766-0.062,2.645-0.062c23.523,0,44.249,14.758,58.421,34.343L170.781,69.38c-2.411,1.838-5.486,2.489-8.438,1.789
			l-24.819-5.913c-8.809-2.108-17.999-0.168-25.209,5.322L92,86.028c-2.411,1.838-5.492,2.486-8.449,1.781l-23.104-5.504
			C63.583,72.886,67.575,64.131,72.434,56.299z M209.283,241.685l-125.28,26.473c-3.54-12.512-7.684-26.136-11.92-36.78l0.568-0.433
			c2.42-1.839,5.508-2.489,8.457-1.79l24.824,5.922c8.812,2.087,17.988,0.147,25.19-5.329l20.294-15.445
			c2.426-1.842,5.514-2.496,8.466-1.794l24.833,5.916c8.801,2.094,17.98,0.154,25.187-5.324l2.486-1.891
			C211.29,221.034,210.229,231.914,209.283,241.685z M216.238,183.155l-18.441,14.029c-2.419,1.838-5.499,2.487-8.45,1.788
			l-24.834-5.917c-8.8-2.091-17.979-0.152-25.196,5.328l-20.299,15.449c-2.419,1.838-5.506,2.49-8.458,1.79l-24.824-5.922
			c-7.248-1.718-14.748-0.701-21.193,2.764c-4.788-13.574-8.227-27.623-10.295-41.686l4.903-3.733
			c2.419-1.839,5.508-2.491,8.457-1.79l24.823,5.922c8.812,2.089,17.988,0.147,25.19-5.329l20.293-15.444
			c2.429-1.842,5.518-2.494,8.467-1.794l10.868,2.589c5.371,1.281,10.766-2.037,12.045-7.41c1.28-5.372-2.037-10.766-7.41-12.045
			l-10.873-2.591c-8.794-2.09-17.977-0.152-25.196,5.328l-20.299,15.449c-2.42,1.838-5.507,2.49-8.458,1.79l-24.823-5.922
			c-6.861-1.626-13.945-0.796-20.148,2.234c-0.693-16.033,0.415-31.726,3.298-46.374l23.528,5.605
			c2.332,0.556,4.688,0.83,7.028,0.83c6.51,0,12.883-2.118,18.176-6.153l20.31-15.447c2.419-1.841,5.495-2.492,8.454-1.785
			l24.834,5.916c8.809,2.094,17.994,0.149,25.181-5.331l17.92-13.623c1.909,4.021,3.556,8.113,4.908,12.213
			C216.099,115.35,220.063,153.509,216.238,183.155z"/>
		</g>
	</g>
	<g>
		<g>
			<path d="M204.972,135.629c-0.132-0.641-0.332-1.27-0.582-1.88c-0.25-0.6-0.55-1.18-0.909-1.72c-0.37-0.55-0.79-1.06-1.25-1.52
			c-0.46-0.46-0.971-0.88-1.52-1.24c-0.54-0.37-1.12-0.67-1.72-0.92c-0.61-0.25-1.24-0.45-1.87-0.58c-1.29-0.25-2.62-0.25-3.91,0
			c-0.64,0.13-1.27,0.33-1.87,0.58c-0.609,0.25-1.189,0.55-1.73,0.92c-0.55,0.36-1.061,0.78-1.52,1.24
			c-0.46,0.46-0.88,0.97-1.24,1.52c-0.359,0.54-0.67,1.12-0.92,1.72c-0.25,0.61-0.449,1.24-0.569,1.88c-0.13,0.64-0.2,1.3-0.2,1.95
			c0,2.63,1.07,5.21,2.93,7.07c0.46,0.46,0.971,0.88,1.52,1.24c0.54,0.36,1.12,0.671,1.73,0.921c0.601,0.25,1.23,0.45,1.87,0.57
			c0.64,0.13,1.3,0.2,1.95,0.2s1.31-0.07,1.96-0.2c0.63-0.12,1.26-0.32,1.87-0.57c0.6-0.25,1.18-0.56,1.72-0.921
			c0.55-0.36,1.061-0.78,1.52-1.24c1.859-1.86,2.93-4.44,2.93-7.07C205.162,136.929,205.092,136.269,204.972,135.629z"/>
		</g>
	</g>
	<g>
		<g>
			<path d="M455.561,387.057c-1.8-1.993-4.326-3.179-7.01-3.29l-128.525-5.326c-4.805-0.211-9.146,3.111-10.184,7.854
			c-5.63,25.744-4.931,51.759,1.97,73.249c8.252,25.7,24.466,42.671,46.89,49.077c7.899,2.257,15.628,3.379,23.07,3.379
			c12.287,0,23.795-3.059,34.011-9.125c15.214-9.034,26.667-24.537,32.251-43.655c6.427-21.999,8.68-41.837,10.084-64.854
			C458.283,391.685,457.361,389.051,455.561,387.057z M428.838,453.613c-8.884,30.415-34.262,44.459-64.642,35.778
			c-32.588-9.31-42.614-51.231-36.363-90.611l109.618,4.543C436.069,420.802,433.799,436.63,428.838,453.613z"/>
		</g>
	</g>
	<g>
		<g>
			<path d="M325.467,225.397c-0.13-0.64-0.33-1.261-0.58-1.87c-0.25-0.6-0.55-1.18-0.92-1.72c-0.359-0.55-0.779-1.06-1.239-1.52
			c-0.46-0.47-0.971-0.88-1.521-1.25c-0.54-0.36-1.12-0.67-1.729-0.92c-0.601-0.25-1.23-0.44-1.87-0.57c-1.29-0.26-2.61-0.26-3.9,0
			c-0.64,0.13-1.27,0.32-1.87,0.57c-0.609,0.25-1.189,0.56-1.729,0.92c-0.55,0.37-1.061,0.78-1.521,1.25
			c-0.46,0.46-0.88,0.97-1.24,1.52c-0.359,0.54-0.67,1.12-0.92,1.72c-0.25,0.61-0.449,1.23-0.569,1.87c-0.13,0.65-0.2,1.3-0.2,1.96
			c0,0.65,0.07,1.31,0.2,1.95c0.12,0.64,0.319,1.27,0.569,1.87c0.25,0.61,0.561,1.19,0.92,1.73c0.36,0.55,0.78,1.06,1.24,1.52
			c0.46,0.46,0.971,0.88,1.521,1.24c0.54,0.36,1.12,0.67,1.729,0.92c0.601,0.25,1.23,0.44,1.87,0.57c0.64,0.13,1.3,0.2,1.95,0.2
			c0.65,0,1.31-0.07,1.95-0.2c0.64-0.13,1.27-0.32,1.87-0.57c0.609-0.25,1.19-0.56,1.729-0.92c0.55-0.36,1.061-0.78,1.521-1.24
			c0.46-0.46,0.88-0.97,1.239-1.52c0.37-0.54,0.67-1.12,0.92-1.73c0.25-0.6,0.45-1.23,0.58-1.87c0.12-0.64,0.19-1.3,0.19-1.95
			C325.657,226.697,325.587,226.047,325.467,225.397z"/>
		</g>
	</g>
	<g>
		<g>
			<path d="M438.193,113.602c-22.136-25.13-49.688-36.506-79.678-32.891c-47.47,5.72-75.759,51.918-81.954,92.422
			c-5.832,38.124-2.3,83.404,9,115.355c3.872,10.953,10.046,33.849,14.553,50.567l1.512,5.602c1.139,4.213,4.879,7.201,9.239,7.381
			l144.646,5.994c0.141,0.006,0.28,0.009,0.42,0.009c5.106,0,9.426-3.869,9.943-8.995c0.959-9.492,3.507-34.703,7.209-49.422
			c0.213-0.844,0.398-1.694,0.602-2.54c0.127-0.413,0.225-0.83,0.296-1.249C489.67,228.745,475.495,155.949,438.193,113.602z
			 M360.909,100.566c29.248-3.526,50.014,12.333,62.277,26.255c6.093,6.917,11.483,14.887,16.143,23.652l-21.873,9.265
			c-2.798,1.188-5.943,1.058-8.636-0.36l-22.583-11.854c-8.028-4.218-17.411-4.606-25.737-1.068l-23.5,9.955
			c-2.795,1.184-5.939,1.052-8.632-0.367l-21.986-11.536C317.503,122.035,336.446,103.514,360.909,100.566z M446.963,337.661
			l-127.94-5.302c-2.555-9.476-5.408-20.029-8.124-29.534l2.769,1.454c8.013,4.203,17.385,4.59,25.721,1.064l23.498-9.955
			c2.796-1.183,5.95-1.053,8.639,0.356l22.594,11.869c4.381,2.298,9.169,3.455,13.977,3.455c3.98,0,7.975-0.794,11.758-2.392
			l23.471-9.952c2.809-1.185,5.959-1.055,8.643,0.352l0.639,0.336C450.202,310.607,448.377,324.732,446.963,337.661z
			 M456.897,279.508c-6.926-2.348-14.492-2.105-21.366,0.798l-23.471,9.952c-2.809,1.186-5.959,1.056-8.645-0.353l-22.6-11.872
			c-8.017-4.2-17.394-4.587-25.725-1.062l-23.499,9.955c-2.796,1.184-5.942,1.054-8.629-0.355l-20.518-10.774
			c-8.695-28.599-11.124-66.887-6.114-99.639c0.653-4.268,1.595-8.578,2.81-12.861l19.921,10.453
			c8.012,4.218,17.392,4.611,25.733,1.08l23.513-9.96c2.789-1.185,5.933-1.054,8.628,0.363l22.577,11.851
			c4.386,2.308,9.18,3.47,13.99,3.47c3.982,0,7.976-0.797,11.755-2.399l22.274-9.436c5.275,13.965,8.975,29.256,10.953,45.182
			c-6.619-1.958-13.745-1.599-20.252,1.149l-23.471,9.952c-2.81,1.186-5.959,1.056-8.645-0.353l-22.599-11.872
			c-8.021-4.199-17.396-4.587-25.726-1.062l-10.287,4.358c-5.086,2.154-7.462,8.023-5.308,13.109
			c2.154,5.085,8.024,7.463,13.108,5.307l10.283-4.356c2.799-1.183,5.951-1.051,8.64,0.356l22.593,11.869
			c4.381,2.298,9.169,3.455,13.977,3.455c3.98,0,7.975-0.794,11.758-2.392l23.47-9.951c2.807-1.185,5.96-1.056,8.643,0.352
			l5.461,2.87C460.423,250.901,459.365,265.327,456.897,279.508z"/>
		</g>
	</g>
</svg>
